<svg xmlns="http://www.w3.org/2000/svg" viewBox="0 0 480 480" role="img"><defs><radialGradient id="bg" cx=".5" cy=".42" r=".75"><stop offset="0" stop-color="#fdf8f4"/><stop offset="1" stop-color="#f9eadf"/></radialGradient></defs><rect width="480" height="480" fill="url(#bg)"/><circle cx="400" cy="96" r="70" fill="#fff" opacity=".35"/><circle cx="70" cy="420" r="90" fill="#fff" opacity=".25"/><ellipse cx="240" cy="408" rx="112.00000000000001" ry="12" fill="#3a2e33" opacity=".14"/><g transform="translate(240 404) scale(1.12) translate(-240 -404)"><defs><linearGradient id="g41" x1="0" y1="0" x2="1" y2="0"><stop offset="0" stop-color="#d9bec5"/><stop offset=".28" stop-color="#f9e3e9"/><stop offset=".6" stop-color="#f7d8e0"/><stop offset="1" stop-color="#c1a8af"/></linearGradient><linearGradient id="g42" x1="0" y1="0" x2="1" y2="0"><stop offset="0" stop-color="#bfa679"/><stop offset=".28" stop-color="#e4cfab"/><stop offset=".6" stop-color="#d9bd8a"/><stop offset="1" stop-color="#a9936c"/></linearGradient></defs><rect x="214" y="110" width="52" height="40" rx="8" fill="url(#g42)"/><rect x="262" y="118" width="26" height="9" rx="4" fill="#c3aa7c"/><rect x="226" y="148" width="28" height="34" fill="#fae4e9"/><path d="M176 218 Q176 182 212 182 H268 Q304 182 304 218 V386 Q304 404 286 404 H194 Q176 404 176 386Z" fill="url(#g41)" stroke="#dcb4be" stroke-opacity=".25"/><rect x="188" y="284" width="104" height="82" rx="8" fill="#fffaf5" opacity=".95"/><rect x="204" y="302" width="72" height="6" rx="3" fill="#d9bd8a"/><rect x="216" y="318" width="48" height="4" rx="2" fill="#ae976e" opacity=".45"/><rect x="222" y="332" width="36" height="4" rx="2" fill="#ae976e" opacity=".3"/><rect x="184" y="196" width="11" height="74" rx="5" fill="#fff" opacity="0.45"/></g></svg>