<svg xmlns="http://www.w3.org/2000/svg" viewBox="0 0 480 480" role="img"><defs><radialGradient id="bg" cx=".5" cy=".42" r=".75"><stop offset="0" stop-color="#fdf5f7"/><stop offset="1" stop-color="#f9e3e7"/></radialGradient></defs><rect width="480" height="480" fill="url(#bg)"/><circle cx="400" cy="96" r="70" fill="#fff" opacity=".35"/><circle cx="70" cy="420" r="90" fill="#fff" opacity=".25"/><ellipse cx="240" cy="408" rx="112.00000000000001" ry="12" fill="#3a2e33" opacity=".14"/><g transform="translate(240 404) scale(1.12) translate(-240 -404)"><defs><linearGradient id="g1" x1="0" y1="0" x2="1" y2="0"><stop offset="0" stop-color="#bf7f88"/><stop offset=".28" stop-color="#e4afb6"/><stop offset=".6" stop-color="#d9909a"/><stop offset="1" stop-color="#a97078"/></linearGradient><linearGradient id="g2" x1="0" y1="0" x2="1" y2="0"><stop offset="0" stop-color="#bfa679"/><stop offset=".28" stop-color="#e4cfab"/><stop offset=".6" stop-color="#d9bd8a"/><stop offset="1" stop-color="#a9936c"/></linearGradient><linearGradient id="g3" x1="0" y1="0" x2="1" y2="0"><stop offset="0" stop-color="#d4c8ae"/><stop offset=".28" stop-color="#f5ebd6"/><stop offset=".6" stop-color="#f1e3c6"/><stop offset="1" stop-color="#bcb19a"/></linearGradient></defs><rect x="196" y="300" width="88" height="104" rx="8" fill="url(#g2)"/><rect x="196" y="300" width="88" height="14" rx="4" fill="url(#g3)"/><rect x="196" y="388" width="88" height="16" rx="6" fill="#ae976e" opacity=".5"/><path d="M206 300 V232 Q206 214 224 204 L266 182 Q278 178 278 194 V300 Z" fill="url(#g1)"/><path d="M224 204 L266 182" stroke="#ecc8cc" stroke-width="3" opacity=".5" stroke-linecap="round"/><rect x="212" y="236" width="10" height="56" rx="5" fill="#fff" opacity="0.3"/><rect x="206" y="320" width="10" height="64" rx="5" fill="#fff" opacity="0.28"/></g></svg>