<svg xmlns="http://www.w3.org/2000/svg" viewBox="0 0 480 480" role="img"><defs><radialGradient id="bg" cx=".5" cy=".42" r=".75"><stop offset="0" stop-color="#f8f5fb"/><stop offset="1" stop-color="#ece3f4"/></radialGradient></defs><rect width="480" height="480" fill="url(#bg)"/><circle cx="400" cy="96" r="70" fill="#fff" opacity=".35"/><circle cx="70" cy="420" r="90" fill="#fff" opacity=".25"/><ellipse cx="240" cy="408" rx="112.00000000000001" ry="12" fill="#3a2e33" opacity=".14"/><g transform="translate(240 404) scale(1.12) translate(-240 -404)"><defs><linearGradient id="g25" x1="0" y1="0" x2="1" y2="0"><stop offset="0" stop-color="#d8bc94"/><stop offset=".28" stop-color="#f9e1c0"/><stop offset=".6" stop-color="#f6d6a8"/><stop offset="1" stop-color="#c0a783"/></linearGradient><linearGradient id="g26" x1="0" y1="0" x2="1" y2="0"><stop offset="0" stop-color="#b1717e"/><stop offset=".28" stop-color="#d8a4ae"/><stop offset=".6" stop-color="#c9808f"/><stop offset="1" stop-color="#9d6470"/></linearGradient></defs><path d="M186.0 134 Q186.0 120 194.0 120 H286.0 Q294.0 120 294.0 134 L288.0 372 H192.0 Z" fill="url(#g25)"/><rect x="186.0" y="118" width="108" height="14" rx="4" fill="#d8bc94" opacity=".6"/><rect x="192.0" y="372" width="96" height="32" rx="8" fill="url(#g26)" stroke="#ab6d7a" stroke-opacity=".3"/><rect x="198.0" y="190" width="84" height="6" rx="3" fill="#a08b6d" opacity=".7"/><rect x="206.0" y="208" width="68" height="4" rx="2" fill="#fff" opacity=".8"/><rect x="210.0" y="224" width="60" height="4" rx="2" fill="#fff" opacity=".6"/><rect x="194.0" y="142" width="9" height="160" rx="4" fill="#fff" opacity="0.35"/></g></svg>